{
  "accessors": [
    {
      "bufferView": 2,
      "componentType": 5126,
      "count": 988,
      "max": [
        8.24507999420166,
        1.104138970375061,
        4.295849800109863
      ],
      "min": [
        -1.9102869033813477,
        -8.360321998596191,
        -3.498697280883789
      ],
      "type": "VEC3"
    },
    {
      "bufferView": 2,
      "byteOffset": 11856,
      "componentType": 5126,
      "count": 988,
      "max": [
        0.9781525731086731,
        0.9999241828918457,
        0.9753130078315735
      ],
      "min": [
        -0.892541229724884,
        -0.9954670667648315,
        -0.9755304455757141
      ],
      "type": "VEC3"
    },
    {
      "bufferView": 1,
      "componentType": 5126,
      "count": 988,
      "max": [
        0.9285714030265808,
        1.0
      ],
      "min": [
        0.0,
        0.0
      ],
      "type": "VEC2"
    },
    {
      "bufferView": 0,
      "componentType": 5125,
      "count": 1536,
      "type": "SCALAR"
    }
  ],
  "asset": {
    "extras": {
      "author": "S M Xenakis (https://sketchfab.com/xenaa)",
      "license": "CC-BY-4.0 (http://creativecommons.org/licenses/by/4.0/)",
      "source": "https://sketchfab.com/3d-models/gold-laurel-wreath-lowpoly-3a8ea8bf9f3a425481c5408b6d4273fd",
      "title": "Gold Laurel Wreath - Lowpoly"
    },
    "generator": "Sketchfab-12.68.0",
    "version": "2.0"
  },
  "bufferViews": [
    {
      "buffer": 0,
      "byteLength": 6144,
      "name": "floatBufferViews",
      "target": 34963
    },
    {
      "buffer": 0,
      "byteLength": 7904,
      "byteOffset": 6144,
      "byteStride": 8,
      "name": "floatBufferViews",
      "target": 34962
    },
    {
      "buffer": 0,
      "byteLength": 23712,
      "byteOffset": 14048,
      "byteStride": 12,
      "name": "floatBufferViews",
      "target": 34962
    }
  ],
  "buffers": [
    {
      "byteLength": 37760,
      "uri": "scene.bin"
    }
  ],
  "materials": [
    {
      "doubleSided": true,
      "name": "Scene_-_Root",
      "pbrMetallicRoughness": {
        "baseColorFactor": [
          1.0,
          0.5978448804492563,
          0.0,
          1.0
        ],
        "roughnessFactor": 0.28139801421544486
      }
    }
  ],
  "meshes": [
    {
      "name": "Object_0",
      "primitives": [
        {
          "attributes": {
            "NORMAL": 1,
            "POSITION": 0,
            "TEXCOORD_0": 2
          },
          "indices": 3,
          "material": 0,
          "mode": 4
        }
      ]
    }
  ],
  "nodes": [
    {
      "children": [
        1
      ],
      "matrix": [
        1.0,
        0.0,
        0.0,
        0.0,
        0.0,
        2.220446049250313e-16,
        -1.0,
        0.0,
        0.0,
        1.0,
        2.220446049250313e-16,
        0.0,
        0.0,
        0.0,
        0.0,
        1.0
      ],
      "name": "Sketchfab_model"
    },
    {
      "children": [
        2
      ],
      "name": "root"
    },
    {
      "children": [
        3
      ],
      "matrix": [
        1.0,
        0.0,
        0.0,
        0.0,
        0.0,
        2.220446049250313e-16,
        1.0,
        0.0,
        0.0,
        -1.0,
        2.220446049250313e-16,
        0.0,
        0.0,
        0.0,
        0.0,
        1.0
      ],
      "name": "GLTF_SceneRootNode"
    },
    {
      "children": [
        4
      ],
      "matrix": [
        0.5246014026521787,
        0.20391651688744655,
        -0.21770354691917268,
        0.0,
        -0.29270246497294317,
        0.2670617073174014,
        -0.4551778413200029,
        0.0,
        -0.05746373680358014,
        0.5012779056252927,
        0.33106161382712285,
        0.0,
        -2.888674020767212,
        0.14471538364887238,
        -1.1851834058761597,
        1.0
      ],
      "name": "Wreath_1"
    },
    {
      "mesh": 0,
      "name": "Object_4"
    }
  ],
  "scene": 0,
  "scenes": [
    {
      "name": "Sketchfab_Scene",
      "nodes": [
        0
      ]
    }
  ]
}
