<?xml version="1.0" standalone="no"?>
<!DOCTYPE svg PUBLIC "-//W3C//DTD SVG 20010904//EN"
 "http://www.w3.org/TR/2001/REC-SVG-20010904/DTD/svg10.dtd">
<svg version="1.0" xmlns="http://www.w3.org/2000/svg"
 width="299.000000pt" height="78.000000pt" viewBox="0 0 299.000000 78.000000"
 preserveAspectRatio="xMidYMid meet">

<g class="logo" transform="translate(0.000000,78.000000) scale(0.100000,-0.100000)"
fill="#FFFFFF" stroke="none">
<path d="M4 766 c-4 -10 -2 -61 4 -113 23 -203 119 -293 264 -249 l47 14 16
-42 c25 -67 43 -165 50 -269 6 -83 10 -98 24 -95 13 3 17 21 23 88 6 83 36
194 63 237 14 21 14 21 52 2 44 -23 129 -25 177 -5 71 30 114 125 123 275 l6
94 -107 -5 c-94 -5 -115 -10 -171 -37 -34 -17 -70 -42 -79 -55 -28 -43 -37
-108 -23 -163 11 -42 11 -53 -1 -71 -8 -12 -24 -46 -36 -76 l-22 -55 -28 92
c-33 110 -33 110 -11 167 20 52 15 125 -11 168 -37 63 -126 100 -266 109 -77
5 -88 4 -94 -11z m251 -60 c29 -13 61 -36 70 -50 22 -33 30 -103 16 -139 l-11
-28 -57 59 c-71 72 -101 90 -110 66 -4 -11 5 -24 28 -43 39 -30 86 -79 100
-103 13 -23 -47 -42 -107 -33 -83 12 -127 86 -141 239 l-6 69 83 -6 c55 -4
100 -15 135 -31z m555 -86 c0 -111 -41 -219 -92 -246 -52 -27 -178 -12 -178
22 0 15 59 67 110 96 38 22 50 41 32 52 -14 8 -71 -25 -122 -71 l-49 -44 -6
34 c-10 49 11 111 45 140 38 32 84 47 174 57 39 4 74 8 79 9 4 0 7 -21 7 -49z"/>
<path d="M1746 714 c-18 -18 -20 -32 -6 -54 8 -12 47 -16 235 -18 188 -3 225
-5 225 -18 0 -12 -35 -14 -219 -14 -256 0 -251 2 -251 -89 0 -93 -7 -91 287
-91 138 0 258 3 267 6 22 9 20 51 -3 64 -12 6 -104 10 -230 10 -181 0 -211 2
-211 15 0 13 30 15 214 15 118 0 221 3 230 6 13 5 16 22 16 80 0 107 10 104
-292 104 -211 0 -249 -2 -262 -16z"/>
<path d="M1492 704 c-22 -15 -22 -16 -22 -314 0 -319 4 -345 48 -357 48 -12
57 13 60 173 3 142 4 145 25 144 53 -5 68 0 78 26 13 36 3 63 -27 69 -13 3
-35 7 -48 10 -22 4 -23 9 -28 117 -5 100 -8 114 -28 130 -27 22 -30 22 -58 2z"/>
<path d="M2418 689 c-21 -12 -24 -52 -5 -68 8 -6 28 -14 45 -17 28 -6 32 -10
32 -40 0 -30 -3 -34 -26 -34 -39 0 -64 -18 -64 -45 0 -35 27 -45 124 -45 79 0
86 -2 86 -20 0 -19 -7 -20 -96 -20 -105 0 -134 -9 -134 -43 0 -46 8 -47 301
-47 153 0 284 3 293 6 23 9 21 61 -3 74 -11 5 -69 10 -130 10 -104 0 -111 1
-111 20 0 18 8 20 112 22 l113 3 10 28 c8 24 6 31 -10 43 -10 8 -34 14 -52 14
-31 0 -33 2 -33 34 0 31 3 34 36 39 63 10 83 47 46 80 -16 15 -50 17 -268 17
-150 0 -256 -5 -266 -11z m352 -124 l0 -35 -85 0 -85 0 0 35 0 35 85 0 85 0 0
-35z"/>
<path d="M1024 681 c-45 -11 -54 -19 -54 -46 0 -27 34 -55 67 -55 l23 0 0
-200 0 -200 -27 -5 c-44 -10 -58 -20 -58 -46 0 -42 33 -49 240 -49 105 0 195
4 201 8 18 12 27 52 14 67 -6 7 -29 16 -51 20 l-39 7 0 199 0 199 30 0 c28 0
70 29 70 49 0 5 -9 19 -19 32 -19 23 -24 24 -193 26 -95 1 -187 -2 -204 -6z
m216 -302 l0 -200 -37 3 -38 3 -3 185 c-1 101 0 190 2 197 3 7 21 13 41 13
l35 0 0 -201z"/>
<path d="M1726 379 c-29 -22 -34 -50 -12 -68 9 -8 100 -11 312 -9 l299 3 10
29 c8 24 6 31 -14 47 -22 18 -43 19 -296 19 -260 0 -273 -1 -299 -21z"/>
<path d="M1965 250 c-74 -44 -207 -142 -219 -162 -8 -14 -6 -22 10 -39 30 -30
63 -20 175 52 65 41 99 57 112 53 11 -3 64 -33 117 -65 104 -63 133 -71 150
-40 15 29 13 38 -17 66 -49 45 -235 165 -257 165 -12 0 -43 -14 -71 -30z"/>
<path d="M2537 250 c-110 -18 -158 -72 -126 -143 24 -52 59 -62 244 -65 187
-4 242 4 281 43 47 47 25 123 -45 152 -43 19 -267 26 -354 13z m288 -80 c37
-14 29 -41 -15 -53 -38 -10 -244 -4 -272 8 -10 4 -18 13 -18 21 0 7 8 18 18
23 22 13 253 14 287 1z"/>
</g>
</svg>
